<svg xmlns="http://www.w3.org/2000/svg" width="224" height="222" version="1.0">
  <g class="layer">
    <path fill="#58984e" d="M115.3 9.2c-10.9 13.7-15.7 21.7-22.2 37-6.9 16.1-8.6 29.5-5.6 42.8.9 3.6 4.9 13.3 9 21.6s7.5 15.7 7.6 16.5c0 .8.4.5.9-.6s.9-11.4.9-22.9c.1-17.8-.1-20.7-1.3-19.7-1.1 1-1.7.7-3-1.1-2-2.8-2-5.1 0-9.4 1.9-3.9 3.7-4.3 5.8-1.2 1.4 1.9 1.6 6.5 1.6 30.5 0 15.8.4 28.3.9 28.3s1.1-4.6 1.3-10.3c.5-11.3 1.3-13.5 9.8-26.2 9.5-14.1 10.5-16.8 10.5-28 0-10.8.5-8.9-9.1-30.5-4.4-9.9-5.4-19.2-3.1-27.8.8-2.8 1.3-5.2 1.2-5.2-.1 0-2.4 2.8-5.2 6.2zm2.5 56c.5 3.9-1.5 7-4.1 6.6-2.9-.4-3.5-5.2-1.1-7.9 2.4-2.6 4.8-2 5.2 1.3z"/>
    <path fill="#265a1d" d="M157 22.3c.3.3 4.1 2.9 8.4 5.7 26.1 17.1 44.3 48.9 46.3 81.2 2.1 33.5-14.2 60.4-46.4 76.7-3.4 1.7-12.3 5.1-19.7 7.6-7.4 2.4-15.7 5.5-18.4 6.9-4.7 2.4-10.9 8.3-13.2 12.6-1.1 2.1-1.4 2-6.5-3.7-6.7-7.5-12.5-10.6-27.7-14.8-14.1-4-29.1-11.1-38.9-18.5-20.7-15.5-31.1-42-27.9-70.8 3.5-31.6 20.2-59.8 45.7-76.8 7.3-4.8 9-6.4 3.8-3.5-6.9 3.9-15.7 10.6-23.1 17.4-34 31.5-45.9 74.1-32 114.5 3.2 9.3 8 17.1 15.4 25.3C34 194.2 47.2 199.8 72.9 203c17.2 2.2 19.3 2.7 24.1 5 3.9 2 9 7 7.1 7-.6 0-3.8-.9-7.1-2s-10.8-2.7-16.7-3.5c-20.6-2.8-24.9-3.7-33.8-7.1-4.9-1.8-9.1-3.2-9.2-3-.7.6 22 10.6 29.4 12.9 11.5 3.7 21 4.7 43.1 4.7 22.5 0 33.1-1 43.4-4.1 7.2-2.1 36.2-14.8 35.5-15.5-.2-.3-2.9.7-6 2-9.1 4.1-22.3 7.5-36.9 9.6-7.5 1.1-16.1 2.9-19 4-2.9 1.1-6.2 2-7.2 2-1.9 0-1.9 0 0-2.1 2.9-3.3 13-7.7 19.3-8.4 19.6-2.2 36.7-6.6 47.2-12.1 16.3-8.6 29.6-28.9 34.4-52.4 2.4-11.8 1.7-34.3-1.5-45-5.4-18.8-14.4-33.7-29.4-48.6-9.9-9.8-21.1-18.5-29.1-22.6-2.2-1.1-3.8-1.8-3.5-1.5z"/>
    <path fill="#378226" d="M141 32c-1.5 2.9-.3 5.9 2.6 6.6 3 .8 5.4-1.1 5.4-4 0-4.6-5.9-6.4-8-2.6zM71.4 44.5c-.9 2.3.3 4.5 2.6 4.5 2.5 0 3.7-2.5 2-4.5-1.6-1.9-3.9-1.9-4.6 0zm92.1 4.5c-.4.7-.3 1.6.3 2.2 1.4 1.4 4.5.2 4-1.5-.6-1.6-3.4-2.1-4.3-.7zm0 17.4c-19.2 4.8-37.2 17.6-46.3 33.1-4.7 7.9-8.5 21.1-10.7 37-.8 5.5-1.7 11.5-2.1 13.2-.4 2.2-.3 3.3.5 3.3.7 0 1.1 2.1 1.1 5.6 0 3.4-.4 5.3-1 4.9-.5-.3-1-2.1-1-4s-.6-3.5-1.4-3.8c-.8-.3-1.8-2.3-2.1-4.4-3-17.9-9.1-36.3-15-45.1-1.9-3-3.5-5.6-3.5-5.9 0-1.3 3.1 2.2 6 6.8 1.8 2.7 3.7 4.6 4.3 4.2.5-.3.7-.1.4.4-.4.6.9 4.4 2.8 8.5 3 6.5 6.6 18.4 7.8 25.8.2 1.4.5-.3.6-3.8.2-11.9-6.9-28.5-19.6-45.3-8.6-11.5-15.8-18.3-24-22.6-6.4-3.5-15.8-6.3-20.8-6.3-2.8 0-2.7.2 2.5 3.2 10.1 5.7 23.1 21.5 28 33.8 1.4 3.6 2.5 9.4 3.1 16.5.5 6 1.4 13.2 2 16C78 150 87 161.6 97.8 166.6l6.2 2.9V189h3.3c2.6 0 3.6-.7 5.5-3.8 4-6.4 6.4-7.5 17.7-8.2 9.1-.6 10.8-1.1 17.3-4.5 13.1-6.8 19-13.9 22.7-27 3.5-12 7.6-17.1 18.5-22.9l6.5-3.5-5.8-2.6c-13.2-5.8-27-5.5-36.4.8-6.1 4.1-8.6 7.9-11.8 18-2.8 8.8-5.4 13.2-17.1 28.8-4.1 5.5-8.9 12.7-10.7 16-1.7 3.2-3.5 5.9-3.9 5.9-1.7 0 .5-46.6 2.7-57.7 2.4-11.6 7.3-21.3 14.5-28.5 7-7 9.2-7.5 2.6-.6-5.1 5.3-10.9 16.6-13.1 25.3-1.8 7.6-3.5 25.3-3.5 37l.1 9 5.7-6.2c12.3-13.4 15.9-22.2 17.1-42.4.8-12.4 1.2-14.6 4-20.5 5.5-11.8 23.7-26.9 40.5-33.5l7.1-2.8H178c-5.2 0-11.7.6-14.5 1.3zm6.5 68.4c0 .5-2.6 1.6-5.7 2.6-12.7 4-19.5 8.8-26.8 19-4 5.6-18.7 20.8-15.4 16 6.9-10.2 21.6-28.7 24.6-31 5.1-3.9 14-7.3 19.1-7.4 2.3 0 4.2.4 4.2.8zm-9 7c0 1.2-12.9 9.4-14.2 9-1.2-.4 3.4-4.3 9.2-7.6 3.9-2.3 5-2.6 5-1.4zm-17.5 26.1c0 .8-1.3 1.8-3 2.3-5.4 1.4-7.8-1.2-2.7-3 3.5-1.4 5.7-1 5.7.7z"/>
    <path fill="#265a1d" d="M136.6 83.7c-1.1 1.1-.6 2.3.9 2.3.8 0 1.5-.4 1.5-.9 0-1.3-1.6-2.2-2.4-1.4zm70.4 28c-.1 7.7-.9 11.8-5.1 25.3-3.8 12.5-8.5 20.3-18.6 31.1-4.6 4.9-8.3 9.1-8.3 9.4 0 1.4 9.7-6.5 13.9-11.3 12-13.8 18-29.4 18.9-49 .2-6.7.2-12.2-.2-12.2-.3 0-.6 3-.6 6.7zm-189.9 5.1c-.3 21.4 6.2 38.4 20 52.4 4.2 4.3 8.2 7.8 9 7.8.7 0-.9-2.3-3.6-5.2-7.5-7.7-7.6-7.8-11.3-13.7-7.5-11.7-11.9-25.7-13.1-41.6l-.8-10-.2 10.3z"/>
    <path fill="#3e6b1a" d="M31.6 140c4.7 3.4 10.7 11.6 15.7 21.5 5.1 10.1 9.1 15.1 15.1 19 8.3 5.3 16.1 7.5 26.6 7.5 9.7 0 9.8.1 15.5 7.6.8 1 1.5 1.4 1.5.8 0-2.1-5.8-9.1-11.7-14C86.7 176 81 170.2 78.1 166c-1.6-2.3.3-.9 5.5 4 10.9 10.5 13.9 12.6 7.4 5.4-3-3.3-6.6-7.6-7.9-9.5-3.5-5.2-20.5-15.9-25.3-15.9-1 0-1.8-.5-1.8-1.1 0-2.8 14.4 2.9 20.2 8l3.6 3.2-2-5.3c-1.1-2.9-2.5-5.9-3.1-6.6-2.3-2.9-9.2-5.3-19-6.8-5.6-.8-13.4-2.1-17.4-2.9-10.5-2.2-11.3-2-6.7 1.5zm39.9 19.4c1.1.8 1.6 1.5 1 1.5-.5 0-2.3-1.1-4-2.5-3.1-2.6-.6-1.8 3 1z"/>
  </g>
</svg>
